<svg width="75" height="65" viewBox="0 0 75 65" fill="none" xmlns="http://www.w3.org/2000/svg">
<path d="M15.0203 17.1908C15.7116 17.1908 16.272 16.5494 16.272 15.7582C16.272 14.967 15.7116 14.3257 15.0203 14.3257C14.329 14.3257 13.7686 14.967 13.7686 15.7582C13.7686 16.5494 14.329 17.1908 15.0203 17.1908Z" fill="white"/>
<path d="M18.7754 17.1908C19.4667 17.1908 20.0271 16.5494 20.0271 15.7582C20.0271 14.967 19.4667 14.3257 18.7754 14.3257C18.0841 14.3257 17.5237 14.967 17.5237 15.7582C17.5237 16.5494 18.0841 17.1908 18.7754 17.1908Z" fill="#D3AB48"/>
<path d="M22.5304 17.1908C23.2217 17.1908 23.7821 16.5494 23.7821 15.7582C23.7821 14.967 23.2217 14.3257 22.5304 14.3257C21.8391 14.3257 21.2787 14.967 21.2787 15.7582C21.2787 16.5494 21.8391 17.1908 22.5304 17.1908Z" fill="white"/>
<path d="M57.5777 22.9211C57.5777 22.5411 57.4458 22.1767 57.2111 21.9081C56.9764 21.6394 56.658 21.4885 56.326 21.4885H51.3193C50.9873 21.4885 50.6689 21.6394 50.4342 21.9081C50.1995 22.1767 50.0676 22.5411 50.0676 22.9211V44.4095H47.5642V28.6513C47.5642 28.2714 47.4323 27.907 47.1976 27.6384C46.9629 27.3697 46.6445 27.2188 46.3125 27.2188H41.3058C40.9738 27.2188 40.6554 27.3697 40.4207 27.6384C40.186 27.907 40.0541 28.2714 40.0541 28.6513V44.4095H37.5507V32.949C37.5507 32.5691 37.4188 32.2047 37.1841 31.936C36.9493 31.6674 36.631 31.5165 36.299 31.5165H31.2923C30.9603 31.5165 30.6419 31.6674 30.4072 31.936C30.1724 32.2047 30.0406 32.5691 30.0406 32.949V44.4095H27.5372V37.2467C27.5372 36.8668 27.4053 36.5024 27.1706 36.2337C26.9358 35.9651 26.6175 35.8142 26.2855 35.8142H21.2787C20.9468 35.8142 20.6284 35.9651 20.3937 36.2337C20.1589 36.5024 20.0271 36.8668 20.0271 37.2467V44.4095H16.272V47.2747H60.0811V44.4095H57.5777V22.9211ZM22.5304 44.4095V38.6793H25.0338V44.4095H22.5304ZM32.5439 44.4095V34.3816H35.0473V44.4095H32.5439ZM42.5575 44.4095V30.0839H45.0608V44.4095H42.5575ZM52.571 44.4095V24.3536H55.0743V44.4095H52.571Z" fill="white"/>
<path d="M16.272 30.0839V32.949H22.5304C22.7091 32.949 22.8857 32.9052 23.0484 32.8206L50.3386 18.6233H58.8294V15.7582H50.0676C49.8889 15.7582 49.7123 15.802 49.5496 15.8867L22.2594 30.0839H16.272Z" fill="#D3AB48"/>
<path d="M72.8433 0H1.23463C0.90718 4e-06 0.59315 0.148879 0.36161 0.413875C0.13008 0.678871 0 1.03828 0 1.41304V52.2826C0 52.6574 0.13008 53.0168 0.36161 53.2818C0.59315 53.5468 0.90718 53.6956 1.23463 53.6957H27.1619V62.1739H24.6927V65H49.3853V62.1739H46.916V53.6957H72.8433C73.1708 53.6956 73.4848 53.5468 73.7163 53.2818C73.9479 53.0168 74.0779 52.6574 74.0779 52.2826V1.41304C74.0779 1.03828 73.9479 0.678871 73.7163 0.413875C73.4848 0.148879 73.1708 4e-06 72.8433 0ZM62.9663 50.8696H11.1117V12.7174C11.1121 12.3428 11.2423 11.9836 11.4737 11.7187C11.7052 11.4538 12.019 11.3048 12.3463 11.3043H61.7316C62.059 11.3048 62.3728 11.4538 62.6042 11.7187C62.8357 11.9836 62.9659 12.3428 62.9663 12.7174V50.8696ZM44.4468 62.1739H29.6312V53.6957H44.4468V62.1739ZM71.6087 50.8696H65.4355V12.7174C65.4344 11.5935 65.0438 10.516 64.3494 9.72129C63.6551 8.92658 62.7136 8.47955 61.7316 8.47826H12.3463C11.3644 8.47955 10.4229 8.92658 9.72847 9.72129C9.03417 10.516 8.64357 11.5935 8.64237 12.7174V50.8696H2.46926V2.82609H71.6087V50.8696Z" fill="white"/>
</svg>
